<mxfile host="app.diagrams.net" modified="2024-08-29T16:11:35.220Z" agent="Mozilla/5.0 (Windows NT 10.0; Win64; x64) AppleWebKit/537.36 (KHTML, like Gecko) Chrome/128.0.0.0 Safari/537.36" version="24.7.1" etag="HdOCRyqXPs0GImWSKTGH" type="github">
  <diagram name="Trang-1" id="3GtefQfO3AUEIGXHABI1">
    <mxGraphModel>
      <root>
        <mxCell id="0" />
        <mxCell id="1" parent="0" />
      </root>
    </mxGraphModel>
  </diagram>
</mxfile>
